<svg xmlns="http://www.w3.org/2000/svg" width="24" height="24" viewBox="0 0 24 24">
    <g fill="#98D8FF" fill-rule="evenodd">
        <path d="M10.354 19h3.292a2 2 0 0 1 1.857 1.257l.948 2.372A1 1 0 0 1 15.523 24H8.477a1 1 0 0 1-.928-1.371l.948-2.372A2 2 0 0 1 10.354 19zM6 5.187V12H3.98a1 1 0 0 1-.949-.686l-1.98-6A1 1 0 0 1 2 4h2.704a1 1 0 0 1 .848.47L6 5.187zM18 5.187V12h2.02a1 1 0 0 0 .949-.686l1.98-6A1 1 0 0 0 22 4h-2.704a1 1 0 0 0-.848.47L18 5.187z"/>
        <path d="M12 15a2 2 0 0 1 2 2v3h-4v-3a2 2 0 0 1 2-2z"/>
        <path d="M5 0h14v10a7 7 0 0 1-14 0V0z"/>
    </g>
</svg>
