<svg xmlns="http://www.w3.org/2000/svg" width="367" height="440" viewBox="0 0 367 440">
    <g fill="none" fill-rule="evenodd">
        <path fill="#D49588" d="M213.13 64.45l-2.335 10.783s-16.44-3.226-21.685-14.554l6.195-17.77c0 1.614.62 3.093 1.64 4.2a6.163 6.163 0 0 0 4.555 2.004c.2 0 .41-.01.61-.038 1.365 10.04 6.085 14.067 11.02 15.374"/>
        <path fill="#E0A79C" d="M274.42 397.073l-19.78 2.863-3.575-8.59c-1.905-31.728-25.735-58.685-30.025-69.423-4.29-10.738-5.715-26.721-6.435-29.584-.265-1.06-6.02-7.626-13.93-16.014h-.01c-7.54-8.006-17.055-17.674-25.595-25.795-6.72-6.393-12.84-11.824-16.935-14.735-4.68-3.33-8.235-7.681-10.905-12.081-5.78-9.486-7.445-19.172-7.445-19.172l12.63-5.965h15.725l29.31 11.214s19.56 28.839 32.97 52.019v.01c4.47 7.73 8.255 14.83 10.4 20.022 8.58 20.756 3.095 28.627 27.165 98.771l6.435 16.46"/>
        <path fill="#E0A79C" d="M175.07 250.53c-5.355 8.198-13.18 19.945-20.36 29.89-6.73 9.332-12.875 17.082-15.88 18.838-8.577 5.01-76.68-20.28-81.209-22.427-4.527-2.147-26.735-4.324-26.735-4.324l-1.668-13.331 16.48-5.773c20.73 12.167 50.956 10.306 60.488 11.737 9.531 1.432 15.488 9.305 20.73 6.92 1.183-.545 3.023-3.75 5.158-8.389 4.966-10.783 11.506-29.307 15.156-39.957 2.67 4.4 6.225 8.75 10.905 12.081 4.095 2.911 10.215 8.342 16.935 14.735"/>
        <path fill="#FFBE00" d="M319.15 389.319c3.66 5.04-.465 7.664-.465 7.664-6.825 5.01-22.375 10.182-37.15 12.805l-.015-.005-.005.01c-16.785 2.974-32.545 2.659-33.315-4.936a77.464 77.464 0 0 1-.39-6.487c-.19-10.964 1.635-18.483 1.635-18.483s3.2 6.688 8.285 5.112c8.98-2.779 6.335-16.045 6.335-16.045 21.115 29.11 51.43 15.314 55.085 20.365"/>
        <path fill="#2F3676" d="M281.515 409.793c-.98.29-33.62 9.937-35.72 3.825-2.125-6.203 2.015-15.248 2.015-15.248.04 2.047.155 4.225.39 6.487.77 7.595 16.53 7.91 33.315 4.936"/>
        <path fill="#FFBE00" d="M5.48 305.506c-6.2-.566-5.452-5.404-5.452-5.404.734-8.444 7.097-23.559 14.866-36.41l.01-.009v-.009c8.827-14.598 19.45-26.257 25.664-21.835a78.24 78.24 0 0 1 5.129 3.983c8.359 7.082 13.198 13.293 13.198 13.293s-7.523-1.88-9.691 2.99c-3.83 8.59 8.416 14.724 8.416 14.724-35.78-3.284-45.938 29.251-52.14 28.677"/>
        <path fill="#2F3676" d="M14.903 263.674c.43-.932 14.692-31.868 20.665-29.419 6.06 2.486 10.129 11.567 10.129 11.567a78.24 78.24 0 0 0-5.129-3.983c-6.214-4.422-16.837 7.237-25.665 21.835"/>
        <path fill="#5C63AB" d="M230.42 261.81v.01c-8.435 14.162-29.745 14.505-29.745 14.505h-.01c-7.54-8.006-17.055-17.674-25.595-25.795-6.72-6.393-12.84-11.824-16.935-14.735-4.68-3.33-8.235-7.681-10.905-12.081-5.78-9.486-7.445-19.172-7.445-19.172l12.63-5.965h15.725l29.31 11.214s19.56 28.839 32.97 52.019"/>
        <path fill="#D49588" d="M149.04 71.592s19.46-10.913 40.07-10.913c20.615 0 12.01 5.456 12.01 5.456l11.105 7.666 7.27 16.104-33.185 39.656-25.16-11.982-6.925-7.635"/>
        <path fill="#FFBE00" d="M222.235 109.35c-.66 3.664-1.525 7.49-2.545 11.422a270.48 270.48 0 0 1-3.86 13.303c-7.95 25.27-19.095 51.113-18.38 59.492.955 11.213 0 16.224 0 16.224s0-2.625-19.885 2.146c-19.87 4.773-37.78-7.395-37.78-7.395-.715-17.893 14.775-37.457 16.205-45.807 1.36-7.959-2.05-49.388-2.345-53.243.16 1.326 1.735 6.664 12.475 12.093 12.265 6.203 21.085 2.739 22.4-10.02 1.305-12.769-8.225-35.08-10.14-39.49-1.915-4.409-9.625-4.343-9.625-4.343s7.965-3.292 12.97-3.292c0 0 19.805 31.732 25.505 31.97 5.71.239 13.095.239 3.565-17.177l1.275-5.888c.785.229 1.405.457 1.66.639 1.04.715 13.985 8.827 8.505 39.365"/>
        <path fill="#E0A79C" d="M202.351 51.76a45.722 45.722 0 0 1-3.584-3.463 6.166 6.166 0 0 1-2.127-1.509 6.192 6.192 0 0 1-1.542-3.097c-3.308-4.904-5.316-10.589-4.772-16.787 1.503-17.13 20.885-17.171 31.405-10.9 3.308.075 5.679 1.01 5.679 1.01s1.712 5.62 2.268 14.759c.188 1.08.413 2.177.706 3.268.803 2.99 3.634 5.664 3.534 8.618-.1 2.973-2.88 4.049-3.797 6.424-.818 2.121-1.478 4.436-2.177 6.443a96.744 96.744 0 0 1-1.489 6.294s-.36.162-1.01.392c-.275.094-.6.2-.97.315-2.555.792-7.2 1.793-11.65.6-4.41-1.168-8.647-4.507-10.474-12.367z"/>
        <path fill="#222528" d="M227.715 17.335s-10.485-4.133-18.11 4.294c-3.76 4.15-5.69 10.183-6.7 15.24a6.2 6.2 0 0 0-5.96 10.24c.825 5.3-6.485 9.701-6.485 9.701-7.15-5.974-15.645-29.77-9.565-42.653 6.07-12.884 25.315-9.715 30.615-10.135 5.955-.477 17.87-7.349 23.24-1.985 5.355 5.372-7.035 15.298-7.035 15.298"/>
        <path fill="#222528" d="M202.905 36.87l2.17 6.751 2.16-1.193s-2.595-18.913 5.725-23.652c8.32-4.738-13.005 0-13.005 0l-9.77 7.548 12.72 10.545"/>
        <path fill="#E0A79C" d="M193.875 139.964c-1.59 3.817-12.865 11.451-15.495 11.451-2.63 0-8.335-4.924-10.4-5.725-2.06-.793-10.96-8.942-10.96-8.942-46.23-11.5-50.834-26.368-50.834-26.368v-.63s13.83-16.176 29.214-28.639c2.03-1.651 4.1-3.235 6.165-4.714 6.78-4.838 13.535-8.484 19.265-9.276 20.655-2.863 17.795 16.385 11.6 24.173-2.305 2.91-9.305 5.82-17.165 8.321-2.395.754-4.87 1.479-7.32 2.157-11.07 3.063-21.581 5.115-21.581 5.115s30.026 17.016 38.601 20.04c0 0 22.88 2.54 25.215 3.34 2.345.793 0 3.494 0 3.494 1.55.477 5.29 2.385 3.695 6.203M254.88 136.748c-6.51.83-19.855-2.033-19.855-2.033s-11.945-.583-19.195-.64a270.48 270.48 0 0 0 3.86-13.303l16.4 2.338s10.375-5.248 15.615-6.365c5.245-1.117 9.685 19.163 3.175 20.003"/>
        <path fill="#2F3676" d="M175.07 250.53c-5.355 8.198-13.18 19.945-20.36 29.89-17.71-3.818-22.636-16.749-22.636-16.749 4.966-10.783 11.506-29.307 15.156-39.957 2.67 4.4 6.225 8.75 10.905 12.081 4.095 2.911 10.215 8.342 16.935 14.735"/>
        <ellipse cx="234" cy="423.5" fill="#040404" opacity=".055" rx="133" ry="16.5"/>
        <ellipse cx="286" cy="423.5" fill="#040404" opacity=".055" rx="56" ry="7" transform="matrix(1 0 0 -1 0 847)"/>
    </g>
</svg>
