<?xml version="1.0" standalone="no"?>
<!DOCTYPE svg PUBLIC "-//W3C//DTD SVG 20010904//EN"
 "http://www.w3.org/TR/2001/REC-SVG-20010904/DTD/svg10.dtd">
<svg version="1.0" xmlns="http://www.w3.org/2000/svg"
 width="310.000000pt" height="310.000000pt" viewBox="0 0 310.000000 310.000000"
 preserveAspectRatio="xMidYMid meet">
<metadata>
Created by potrace 1.11, written by Peter Selinger 2001-2013
</metadata>
<g transform="translate(0.000000,310.000000) scale(0.100000,-0.100000)"
fill="#000000" stroke="none">
<path d="M1797 2934 c-1 -1 -22 -4 -47 -7 -25 -3 -63 -11 -85 -17 -22 -6 -51
-13 -64 -16 -13 -3 -62 -23 -108 -45 -191 -93 -329 -230 -424 -419 -17 -36
-33 -66 -35 -68 -1 -2 -17 -6 -36 -8 -264 -39 -509 -213 -642 -456 -38 -69
-82 -185 -91 -240 -18 -108 -21 -140 -19 -198 3 -141 23 -232 75 -348 16 -35
29 -65 29 -68 0 -13 112 -163 154 -206 111 -114 306 -223 436 -243 76 -11 105
-24 123 -54 41 -69 256 -261 293 -261 4 0 15 -6 23 -13 38 -32 196 -83 291
-94 65 -8 197 -8 257 0 117 16 266 74 374 147 281 192 433 544 380 882 -13 78
-55 210 -82 254 -18 30 -18 31 0 50 10 11 20 24 22 29 2 6 21 39 41 75 100
176 137 423 92 610 -3 14 -7 34 -9 45 -7 49 -71 191 -116 261 -46 71 -186 224
-204 224 -4 0 -21 11 -37 25 -34 29 -197 110 -243 120 -5 2 -29 8 -53 14 -24
7 -60 15 -80 18 -35 5 -210 11 -215 7z"/>
</g>
</svg>
