<svg xmlns="http://www.w3.org/2000/svg" xmlns:xlink="http://www.w3.org/1999/xlink" width="18" height="18" viewBox="0 0 18 18">
    <defs>
        <path id="a" d="M15.161 6.074c.094-.312 0-.541-.445-.541h-1.474c-.375 0-.547.198-.641.417 0 0-.75 1.826-1.811 3.013-.344.343-.5.453-.687.453-.094 0-.23-.11-.23-.422v-2.92c0-.374-.108-.541-.42-.541H7.137c-.234 0-.375.174-.375.339 0 .355.53.437.585 1.436v2.17c0 .476-.086.562-.273.562-.5 0-1.715-1.835-2.435-3.934-.142-.408-.283-.573-.66-.573H2.505c-.42 0-.505.198-.505.417 0 .39.5 2.326 2.326 4.886 1.218 1.749 2.934 2.697 4.495 2.697.937 0 1.053-.21 1.053-.573v-1.322c0-.421.088-.505.385-.505.219 0 .593.11 1.468.952.999 1 1.164 1.448 1.726 1.448h1.473c.421 0 .632-.21.51-.626-.132-.414-.61-1.015-1.243-1.727-.343-.406-.858-.843-1.014-1.062-.219-.28-.156-.406 0-.656 0 0 1.795-2.529 1.982-3.388"/>
    </defs>
    <g fill="none" fill-rule="evenodd">
        <mask id="b" fill="#fff">
            <use xlink:href="#a"/>
        </mask>
        <use fill="#303C42" xlink:href="#a"/>
        <g fill="#212B36" mask="url(#b)">
            <rect width="18" height="18" rx="4"/>
        </g>
    </g>
</svg>
