<svg xmlns="http://www.w3.org/2000/svg" width="24" height="24" viewBox="0 0 24 24">
    <path fill="#98D8FF" fill-rule="nonzero" d="M13.014 2.66l2.472 5.018c.172.349.504.59.889.646l5.526.805c.968.141 1.355 1.333.654 2.017l-3.999 3.906a1.184 1.184 0 0 0-.339 1.047l.944 5.516c.165.966-.847 1.702-1.712 1.247l-4.943-2.604a1.18 1.18 0 0 0-1.099 0l-4.943 2.604c-.865.456-1.877-.281-1.712-1.247l.944-5.516a1.184 1.184 0 0 0-.34-1.047l-3.998-3.906c-.7-.684-.314-1.876.654-2.017l5.526-.805a1.18 1.18 0 0 0 .89-.646l2.47-5.019a1.179 1.179 0 0 1 2.116 0z"/>
</svg>
