<svg xmlns="http://www.w3.org/2000/svg" width="38" height="30" viewBox="0 0 38 30">
    <g fill="#FFF" fill-rule="nonzero">
        <path d="M5 26h10v2H5zM0 22h10v2H0zM11.946 7.317A6.641 6.641 0 0 0 10.858 6L8.2 9.9l4.345 3.899c.215-1.622.274-5.094-.6-6.482z"/>
        <path d="M13.741 14.841L26.971 25H38c-.317-2.25-1.847-5.21-4.049-6.246l-1.026-.483c-.026-.013-.05-.03-.076-.043l-1.815 3.416-1.755-.826 1.928-3.626a8.927 8.927 0 0 1-.661-.56l-2.758 2.595-1.387-1.305 2.915-2.743a8.374 8.374 0 0 1-.558-.971l-4.24 1.552-.71-1.72 4.313-1.58a8.022 8.022 0 0 1-.217-2.26l.05-.967h-1.4c-3.597 0-6.352-2.537-6.762-5.9-.236-1.94-2.08-3.42-4.115-3.33l-.475.017L11 5.438a8.375 8.375 0 0 1 1.619 1.705c1.392 1.975 1.786 5.432 1.122 7.698z"/>
        <path d="M26.382 26.225L7.146 11 5 14.152 25.028 30H38v-3.775z"/>
    </g>
</svg>
